<svg id="Layer_1" enable-background="new 0 0 510.928 510.928" height="512" viewBox="0 0 510.928 510.928" width="512" xmlns="http://www.w3.org/2000/svg"><g><g><path d="m232.261 215.941-48.167-14.983-36.105-32.959 28.913 15.526c2.249-.079 4.472-.54 6.559-1.407l48.456-20.146c-12.064-6.919-18.043-21.198-14.421-34.698l-44.527 18.513-27.955-1.452c-4.157-5.592-10.503-9.105-17.501-9.105h-39.509c-10.314 0-19.155 7.369-21.013 17.514l-34.791 189.968c-1.177 6.433 3.408 12.358 9.376 12.358h18.308v41.675l-31.275 83.192c-4.31 11.465.956 24.58 12.274 29.264 11.855 4.906 25.281-1.024 29.742-12.891l32.908-87.534c.953-2.536 1.442-5.224 1.442-7.933v-44.733c4.716-.614 3.272-.426 7.988-1.04l11.26 42.506 3.91 91.764c.53 12.435 11.044 22.101 23.484 21.565 12.44-.53 22.095-11.044 21.565-23.484l-4.014-94.211c-.069-1.627-.315-3.242-.732-4.816l-8.828-33.324h14.955c6.013 0 10.549-5.95 9.376-12.358l-17.157-93.769c-4.367-1.784-10.109-1.711-13.955-7.526l-30.171-45.667 39.195 35.78c2.035 1.858 4.455 3.246 7.086 4.064l64.17 19.96c10.577 3.29 21.778-3.246 24-14.238-12.712-2.057-22.995-12.195-24.846-25.375z"/></g><ellipse cx="108.07" cy="82.326" rx="38.574" ry="38.574" transform="matrix(.987 -.16 .16 .987 -11.792 18.374)"/><circle cx="388.119" cy="79.267" r="42.006"/><path d="m483.26 483.466-40.183-178.01v-145.454c0-14.584-11.822-26.807-26.406-26.807-5.322 0-43.959 0-43.959 0l-56.083 8.821-62.244-24.668c-9.88-3.916-21.054.919-24.969 10.795-3.914 9.876.919 21.055 10.795 24.968l63.022 24.976 27.895-2.431 33.622-11.928-36.409 22.927-68.094 5.933c-10.584.922-18.415 10.248-17.493 20.832.928 10.648 10.319 18.414 20.831 17.493l72.734-6.337c3.049-.266 5.99-1.255 8.58-2.886l40.35-25.408-34.64 34.475c-2.435 2.423-5.526 3.781-8.698 4.083v72.722h.34l-.014 180.861c-.001 12.427 10.072 22.502 22.498 22.503h.002c12.426 0 22.499-10.073 22.5-22.499l.014-180.865h10.992c-.091 1.97.072 3.983.527 5.999l40.59 179.813c2.74 12.14 14.799 19.727 26.904 16.994 12.123-2.735 19.731-14.78 16.996-26.902z"/><path d="m179.818 67.061c8.985 0 13.672-5.016 13.672-9.459v-35.517l25.723-7.644v24.281c-6.003-.341-14.279 2.315-14.279 7.953 0 4.413 5.841 7.991 13.047 7.991 3.844 0 7.289-1.025 9.677-2.645 2.281-.906 3.896-3.129 3.896-5.732v-40.119c0-1.948-.919-3.781-2.481-4.945-1.561-1.164-3.58-1.523-5.448-.969l-38.063 11.312c-2.617.778-4.412 3.184-4.412 5.915v33.637c-.438-.027-.882-.041-1.332-.041-7.206 0-13.047 3.578-13.047 7.991s5.841 7.991 13.047 7.991z"/><path d="m272.311 96.722c8.997 0 13.673-5.026 13.673-9.459v-35.907l4.407-1.723c1.584-.619 3.299-.426 4.706.535 1.406.96 2.212 2.486 2.212 4.188 0 3.407 2.763 6.17 6.17 6.17s6.17-2.763 6.17-6.17c0-5.758-2.839-11.134-7.595-14.381-4.754-3.246-10.796-3.933-16.159-1.835l-8.329 3.258c-2.366.925-3.923 3.206-3.923 5.746v33.637c-.438-.027-.883-.041-1.332-.041-7.206 0-13.047 3.578-13.047 7.991s5.841 7.991 13.047 7.991z"/></g></svg>