<svg id="Capa_1" enable-background="new 0 0 512 512" height="512" viewBox="0 0 512 512" width="512" xmlns="http://www.w3.org/2000/svg"><g><path d="m304.96 465.601c10.619-15.979 17.265-33.893 19.58-52.628h-40.593c2.54 19.502 9.969 37.465 21.013 52.628z"/><path d="m283.947 382.973h40.593c-2.314-18.735-8.961-36.649-19.579-52.628-11.044 15.164-18.474 33.127-21.014 52.628z"/><path d="m327.245 309.783c15.531 21.886 24.903 46.937 27.49 73.19h28.238v-99.027c-21.348 2.781-40.852 11.419-56.857 24.245z"/><path d="m468.701 309.783 1.129-1.591c-16.005-12.826-35.51-21.464-56.857-24.245v99.027h28.238c2.588-26.253 11.959-51.304 27.49-73.191z"/><path d="m441.211 412.973h-28.238v99.027c21.348-2.781 40.852-11.419 56.858-24.246l-1.13-1.592c-15.531-21.886-24.902-46.936-27.49-73.189z"/><path d="m490.986 330.345c-10.619 15.979-17.265 33.893-19.579 52.628h40.593c-2.541-19.501-9.97-37.464-21.014-52.628z"/><path d="m327.245 486.163-1.13 1.592c16.005 12.827 35.51 21.465 56.858 24.246v-99.027h-28.238c-2.587 26.252-11.958 51.302-27.49 73.189z"/><path d="m490.987 465.601c11.044-15.163 18.473-33.126 21.013-52.628h-40.593c2.315 18.735 8.961 36.65 19.58 52.628z"/><path d="m0 395v102c0 8.284 6.716 15 15 15h35v-97c0-2.329.542-4.625 1.583-6.708 12.049-24.097 18.417-51.073 18.417-78.013v-26.912c-40.289 11.004-70 47.902-70 91.633z"/><path d="m155 301.203v13.797c0 16.569 13.431 30 30 30 16.568 0 30-13.431 30-30v-13.797c-9.592 2.478-19.645 3.797-30 3.797s-20.408-1.319-30-3.797z"/><path d="m121.754 110h14.914c17.143 0 33.96-5.992 47.355-16.872 5.524-4.487 12.224-6.714 18.911-6.714 7.262 0 14.509 2.626 20.22 7.835 11.136 10.157 25.513 15.751 40.481 15.751h11.365v-50c0-33.137-26.863-60-60-60h-155c-8.284 0-15 6.716-15 15v18.246c0 42.39 34.364 76.754 76.754 76.754z"/><path d="m275 185v-45h-11.365c-22.836 0-44.394-8.715-60.697-23.586-18.401 14.946-41.699 23.586-66.27 23.586h-14.914c-9.236 0-18.201-1.18-26.754-3.396v48.396c0 49.706 40.294 90 90 90 49.706 0 90-40.294 90-90z"/><path d="m270 329.862v-29.862h-25v15c0 33.084-26.916 60-60 60s-60-26.916-60-60v-15h-25v30.279c0 30.371-6.907 60.782-20 88.189v93.532h210v-17.356c-23.009-25.673-37.026-59.563-37.026-96.67 0-24.605 6.167-47.793 17.026-68.112z"/></g></svg>